<svg width="300" height="198" viewBox="0 0 300 198" fill="none" xmlns="http://www.w3.org/2000/svg">
<path d="M165.967 35.713C157.641 55.3223 150.301 71.6451 149.863 71.8642C149.315 72.1928 147.563 71.426 145.919 70.221C139.127 65.4008 129.597 63.2098 115.027 63.1003C100.128 62.9907 92.1308 64.634 83.5859 69.6732L78.8753 72.4119L74.822 70.3305C67.4822 66.6058 59.266 65.6199 29.3592 64.9626L0 64.3053V111.521V158.846H21.3621H42.7241V145.153C42.7241 137.594 43.1623 131.459 43.7101 131.459C45.3533 131.459 46.0106 134.636 46.0106 143.509C46.0106 148.11 46.3393 153.588 46.6679 155.45L47.4347 158.956L71.0973 158.846C84.1337 158.846 96.7318 159.284 99.1419 159.832C101.552 160.489 105.386 161.037 107.687 161.037C109.878 161.037 111.74 161.256 111.74 161.585C111.74 161.804 108.344 169.801 104.181 179.332L96.7318 196.641L129.597 196.969C147.672 197.079 162.571 197.079 162.79 196.969C162.899 196.75 167.062 166.076 172.102 128.72C177.031 91.3639 181.413 60.4711 181.742 60.0329C182.18 59.5947 186.562 90.1589 191.601 127.953C196.641 165.748 200.913 196.75 201.023 196.969C201.132 197.079 216.031 197.079 234.216 196.969L267.19 196.641L259.631 179.332C249.443 155.998 249.772 157.751 255.468 157.751C262.041 157.751 274.42 154.902 279.898 152.273C294.577 145.153 301.15 129.706 299.836 105.715C298.521 83.0382 290.086 71.6451 270.258 66.0581C266.423 65.0722 255.797 64.3053 237.064 63.8671L209.567 63.2098L195.983 31.6597C188.534 14.2414 182.18 5.69038e-06 181.851 5.69038e-06C181.523 5.69038e-06 174.402 16.1037 165.967 35.713ZM46.4488 97.0605C48.092 101.442 46.7775 108.454 44.2578 108.454C43.1623 108.454 42.7241 106.81 42.7241 101.881C42.7241 96.9509 43.1623 95.3077 44.2578 95.3077C45.1342 95.3077 46.1202 96.0745 46.4488 97.0605ZM115.903 112.397C115.465 127.844 113.493 128.282 113.055 112.945C112.726 100.785 113.274 97.4987 115.136 99.361C115.793 100.018 116.122 105.386 115.903 112.397ZM253.606 111.192C253.606 120.723 253.387 122.147 251.744 122.476C249.991 122.805 249.772 121.709 249.772 111.192C249.772 100.676 249.991 99.5801 251.744 99.9088C253.387 100.237 253.606 101.662 253.606 111.192Z" fill="black"/>
<path d="M0.350391 183L5.24297 175.529L0.809376 168.684H4.18828L7.05938 173.283L9.87188 168.684H13.2215L8.76836 175.637L13.6609 183H10.1746L7.00078 178.049L3.81719 183H0.350391ZM12.5453 183V168.684H17.184C18.9418 168.684 20.0876 168.755 20.6215 168.898C21.4418 169.113 22.1286 169.582 22.682 170.305C23.2354 171.021 23.5121 171.949 23.5121 173.088C23.5121 173.967 23.3526 174.706 23.0336 175.305C22.7146 175.904 22.3077 176.376 21.8129 176.721C21.3246 177.059 20.8266 177.284 20.3188 177.395C19.6286 177.531 18.6293 177.6 17.3207 177.6H15.4359V183H12.5453ZM15.4359 171.105V175.168H17.018C18.1573 175.168 18.919 175.093 19.3031 174.943C19.6872 174.794 19.9867 174.559 20.2016 174.24C20.4229 173.921 20.5336 173.55 20.5336 173.127C20.5336 172.606 20.3806 172.176 20.0746 171.838C19.7686 171.499 19.3813 171.288 18.9125 171.203C18.5674 171.138 17.8741 171.105 16.8324 171.105H15.4359ZM23.2852 183V168.684H33.9004V171.105H26.1758V174.279H33.3633V176.691H26.1758V180.588H34.1738V183H23.2852ZM34.0348 183V168.684H40.1188C41.6487 168.684 42.7587 168.814 43.4488 169.074C44.1454 169.328 44.7021 169.784 45.1188 170.441C45.5354 171.099 45.7438 171.851 45.7438 172.697C45.7438 173.771 45.428 174.66 44.7965 175.363C44.165 176.06 43.221 176.499 41.9645 176.682C42.5895 177.046 43.1038 177.447 43.5074 177.883C43.9176 178.319 44.4677 179.094 45.1578 180.207L46.9059 183H43.4488L41.359 179.885C40.6168 178.771 40.109 178.072 39.8355 177.785C39.5621 177.492 39.2724 177.294 38.9664 177.189C38.6604 177.079 38.1754 177.023 37.5113 177.023H36.9254V183H34.0348ZM36.9254 174.738H39.0641C40.4508 174.738 41.3167 174.68 41.6617 174.562C42.0068 174.445 42.277 174.243 42.4723 173.957C42.6676 173.671 42.7652 173.312 42.7652 172.883C42.7652 172.401 42.635 172.014 42.3746 171.721C42.1207 171.421 41.7594 171.232 41.2906 171.154C41.0563 171.122 40.3531 171.105 39.1813 171.105H36.9254V174.738ZM49.1008 183V171.105H44.8527V168.684H56.2297V171.105H51.9914V183H49.1008Z" fill="black"/>
<path d="M182.083 86.0195L183 86L183.25 105.019H181.75L182.083 86.0195Z" fill="url(#paint0_linear_337_621)"/>
<path d="M181.833 109.019H183.167L183.5 128.019H181.5L181.833 109.019Z" fill="black"/>
<path d="M181.5 132.019H183.5L184 151.019H181L181.5 132.019Z" fill="black"/>
<path d="M181 155.019H184L184.5 174.019H180.5L181 155.019Z" fill="black"/>
<path d="M180.5 178.019H184.5L185 197.019H180L180.5 178.019Z" fill="black"/>
<defs>
<linearGradient id="paint0_linear_337_621" x1="182.5" y1="86" x2="182.5" y2="105.019" gradientUnits="userSpaceOnUse">
<stop stop-color="white"/>
<stop offset="1"/>
</linearGradient>
</defs>
</svg>
